<svg xmlns="http://www.w3.org/2000/svg" viewBox="0 0 100 100" width="100" height="100">
  <path d="M30.5 20.5c-0.5 0.5-1 1.5-1 2s-0.5 2-0.5 2.5 0 1.5-0.5 2-1 1-1 1.5 0 1.5-0.5 2-1 1-1 1.5-0.5 1.5-0.5 2 0 1.5-0.5 2-1 1-1 1.5-0.5 1.5-0.5 2 0 1.5-0.5 2-1 1-1 1.5-0.5 1.5-0.5 2 0 1.5-0.5 2-1 1-1 1.5-0.5 1.5-0.5 2 0 1.5-0.5 2-1 1-1 1.5-0.5 1.5-0.5 2 0 1.5-0.5 2-1 1-1 1.5-0.5 1.5-0.5 2-0.5 1.5-1 2-1 1-1.5 1.5-1 1-1.5 1.5-1 1-1.5 1.5-1 1-1.5 1.5-1 1-1.5 1.5-1 1-1.5 1.5-1 1-1.5 1.5-1 1-1.5 1.5-1 1-1.5 1.5-1 1-1.5 1.5 1 2 1.5 2.5 1 1 1.5 1.5 1 1 1.5 1.5 1 1 1.5 1.5 1 1 1.5 1.5 1 1 1.5 1.5 1 1 1.5 1.5 1 1 1.5 1.5z M65.5 20.5c0.5 0.5 1 1.5 1 2s0.5 2 0.5 2.5 0 1.5 0.5 2 1 1 1 1.5 0 1.5 0.5 2 1 1 1 1.5 0.5 1.5 0.5 2 0 1.5 0.5 2 1 1 1 1.5 0.5 1.5 0.5 2 0 1.5 0.5 2 1 1 1 1.5 0.5 1.5 0.5 2 0 1.5 0.5 2 1 1 1 1.5 0.5 1.5 0.5 2 0 1.5 0.5 2 1 1 1 1.5 0.5 1.5 0.5 2 0.5 1.5 1 2 1 1 1.5 1.5 1 1 1.5 1.5 1 1 1.5 1.5 1 1 1.5 1.5 1 1 1.5 1.5 1 1 1.5 1.5 1 1 1.5 1.5 1 1 1.5 1.5 1 1 1.5 1.5 1 1 1.5 1.5-1 2-1.5 2.5-1 1-1.5 1.5-1 1-1.5 1.5-1 1-1.5 1.5-1 1-1.5 1.5-1 1-1.5 1.5-1 1-1.5 1.5-1 1-1.5 1.5z"
        fill="currentColor"/>
  <path d="M40 30 C 40 35, 45 45, 55 43 C 60 42, 60 35, 55 30 C 50 25, 45 25, 40 30 Z"
        fill="currentColor"/>
</svg>